<svg width="662" height="662" viewBox="0 0 662 662" fill="none" xmlns="http://www.w3.org/2000/svg">
<rect width="662" height="662" rx="99" fill="black"/>
<path d="M380.642 198.404C380.642 198.397 380.644 198.39 380.649 198.385C387.954 189.897 385.52 182.925 375.236 182.903L126.705 181.938C116.417 181.894 108 191.745 108 203.812V384.274C108 396.341 116.417 406.192 126.705 406.17L311.883 405.709C322.17 405.687 330.625 395.792 330.662 383.725L330.756 353.008C330.793 340.941 322.414 331.112 312.126 331.155L197.783 331.66C187.496 331.704 177.395 331.836 175.337 331.967C173.28 332.099 171.596 322.313 171.596 310.246V279.529C171.596 267.462 180.014 257.523 190.301 257.457L311.883 256.601C322.17 256.536 336.573 249.537 343.887 241.046L380.635 198.423C380.639 198.418 380.642 198.411 380.642 198.404V198.404Z" fill="white"/>
<path d="M380.642 198.404C380.642 198.397 380.644 198.39 380.649 198.385C387.954 189.897 385.52 182.925 375.236 182.903L126.705 181.938C116.417 181.894 108 191.745 108 203.812V384.274C108 396.341 116.417 406.192 126.705 406.17L311.883 405.709C322.17 405.687 330.625 395.792 330.662 383.725L330.756 353.008C330.793 340.941 322.414 331.112 312.126 331.155L197.783 331.66C187.496 331.704 177.395 331.836 175.337 331.967C173.28 332.099 171.596 322.313 171.596 310.246V279.529C171.596 267.462 180.014 257.523 190.301 257.457L311.883 256.601C322.17 256.536 336.573 249.537 343.887 241.046L380.635 198.423C380.639 198.418 380.642 198.411 380.642 198.404V198.404Z" fill="white"/>
<path d="M281.135 463.827C281.135 463.834 281.133 463.841 281.128 463.846C273.823 472.333 276.257 479.306 286.541 479.328L535.072 480.293C545.36 480.337 553.777 470.486 553.777 458.418V277.957C553.777 265.89 545.36 256.039 535.072 256.061L349.894 256.521C339.607 256.543 331.152 266.438 331.115 278.506L331.021 309.223C330.984 321.29 339.363 331.119 349.651 331.075L463.994 330.571C474.281 330.527 484.382 330.395 486.44 330.264C488.497 330.132 490.181 339.917 490.181 351.985V382.701C490.181 394.769 481.763 404.708 471.476 404.774L349.894 405.629C339.607 405.695 325.204 412.694 317.89 421.185L281.142 463.807C281.138 463.813 281.135 463.82 281.135 463.827V463.827Z" fill="white"/>
<path d="M281.135 463.827C281.135 463.834 281.133 463.841 281.128 463.846C273.823 472.333 276.257 479.306 286.541 479.328L535.072 480.293C545.36 480.337 553.777 470.486 553.777 458.418V277.957C553.777 265.89 545.36 256.039 535.072 256.061L349.894 256.521C339.607 256.543 331.152 266.438 331.115 278.506L331.021 309.223C330.984 321.29 339.363 331.119 349.651 331.075L463.994 330.571C474.281 330.527 484.382 330.395 486.44 330.264C488.497 330.132 490.181 339.917 490.181 351.985V382.701C490.181 394.769 481.763 404.708 471.476 404.774L349.894 405.629C339.607 405.695 325.204 412.694 317.89 421.185L281.142 463.807C281.138 463.813 281.135 463.82 281.135 463.827V463.827Z" fill="white"/>
<path d="M404.469 180.929C393.484 180.862 390.888 173.833 398.697 165.306L437.942 122.491C445.751 113.963 461.129 107 472.114 107H534.027C545.012 107 553.999 116.916 553.999 129.035V159.885C553.999 172.004 545.012 181.854 534.027 181.788L404.469 180.929Z" fill="white"/>
<path d="M257.531 481.42C268.515 481.486 271.112 488.516 263.303 497.043L224.058 539.858C216.248 548.386 200.87 555.349 189.885 555.349H127.972C116.987 555.349 108 545.433 108 533.313V502.464C108 490.345 116.987 480.495 127.972 480.561L257.531 481.42Z" fill="white"/>
</svg>
